<?xml version="1.0" standalone="no"?><!DOCTYPE svg PUBLIC "-//W3C//DTD SVG 1.1//EN" "http://www.w3.org/Graphics/SVG/1.1/DTD/svg11.dtd"><svg t="1615542485941" class="icon" viewBox="0 0 1024 1024" version="1.1" xmlns="http://www.w3.org/2000/svg" p-id="1593" xmlns:xlink="http://www.w3.org/1999/xlink" width="200" height="200"><defs><style type="text/css"></style></defs><path d="M884.363636 372.363636h-111.709091v-181.527272l-256-144.290909-265.30909 144.290909V372.363636H139.636364c-51.2 0-93.090909 41.890909-93.090909 93.090909v512h930.90909V465.454545c0-51.2-41.890909-93.090909-93.090909-93.090909z m-633.018181 530.618182h-130.327273V465.454545c0-9.309091 9.309091-18.618182 18.618182-18.618181h111.709091v456.145454z m302.545454 0h-83.781818V698.181818c0-9.309091 9.309091-18.618182 18.618182-18.618182h46.545454c9.309091 0 18.618182 9.309091 18.618182 18.618182v204.8zM698.181818 372.363636v530.618182h-69.818182V698.181818c0-51.2-41.890909-93.090909-93.090909-93.090909h-46.545454c-51.2 0-93.090909 41.890909-93.090909 93.090909v204.8H325.818182V237.381818l190.836363-107.054545 181.527273 107.054545V372.363636z m204.8 530.618182h-130.327273v-456.145454H884.363636c9.309091 0 18.618182 9.309091 18.618182 18.618181v437.527273z" p-id="1594"></path><path d="M395.636364 335.127273c0 18.618182 18.618182 37.236364 37.236363 37.236363h158.254546c18.618182 0 37.236364-18.618182 37.236363-37.236363s-18.618182-37.236364-37.236363-37.236364h-158.254546c-18.618182 0-37.236364 18.618182-37.236363 37.236364zM591.127273 432.872727h-158.254546c-18.618182 0-37.236364 18.618182-37.236363 37.236364s18.618182 37.236364 37.236363 37.236364h158.254546c18.618182 0 37.236364-18.618182 37.236363-37.236364s-18.618182-37.236364-37.236363-37.236364z" p-id="1595"></path></svg>